<?xml version="1.0" encoding="UTF-8"?>
<!DOCTYPE svg PUBLIC "-//W3C//DTD SVG 1.1//EN" "http://www.w3.org/Graphics/SVG/1.1/DTD/svg11.dtd">
<svg xmlns="http://www.w3.org/2000/svg" version="1.1" width="1482px" height="1080px" style="shape-rendering:geometricPrecision; text-rendering:geometricPrecision; image-rendering:optimizeQuality; fill-rule:evenodd; clip-rule:evenodd" xmlns:xlink="http://www.w3.org/1999/xlink">
<g><path style="opacity:0.998" fill="#f8eeb4" d="M 1165.5,457.5 C 1160.69,456.513 1155.69,456.179 1150.5,456.5C 1088.85,454.669 1044.68,426.002 1018,370.5C 1008.53,345.732 1004.7,320.065 1006.5,293.5C 1006.5,291.833 1006.5,290.167 1006.5,288.5C 1006.5,278.167 1006.5,267.833 1006.5,257.5C 1006.5,246.167 1006.5,234.833 1006.5,223.5C 1006.5,223.167 1006.5,222.833 1006.5,222.5C 1006.5,208.167 1006.5,193.833 1006.5,179.5C 1006.5,174.5 1006.5,169.5 1006.5,164.5C 1011.48,104.03 1041.81,61.8631 1097.5,38C 1111.03,32.8266 1125.03,29.8266 1139.5,29C 1195.17,28.3333 1250.83,28.3333 1306.5,29C 1365.06,35.0123 1406.22,64.8456 1430,118.5C 1434.57,130.109 1437.57,142.109 1439,154.5C 1439.67,213.5 1439.67,272.5 1439,331.5C 1430.68,384.811 1402.18,422.978 1353.5,446C 1338.47,452.342 1322.8,456.009 1306.5,457C 1259.5,457.5 1212.5,457.667 1165.5,457.5 Z"/></g>
<g><path style="opacity:1" fill="#7ba4fe" d="M 1213.5,125.5 C 1255.47,121.551 1283.64,139.218 1298,178.5C 1299.65,186.09 1300.81,193.757 1301.5,201.5C 1344.01,197.666 1371.84,215.999 1385,256.5C 1390.92,295.166 1376.42,323 1341.5,340C 1334.99,342.294 1328.32,343.961 1321.5,345C 1261.17,345.667 1200.83,345.667 1140.5,345C 1101.29,338.981 1075.46,317.148 1063,279.5C 1053.23,238.231 1065.07,204.731 1098.5,179C 1118.16,166.002 1139.83,160.669 1163.5,163C 1174.93,143.459 1191.59,130.959 1213.5,125.5 Z"/></g>
<g><path style="opacity:0.694" fill="#000000" d="M 1006.5,164.5 C 1006.5,169.5 1006.5,174.5 1006.5,179.5C 693.166,179.333 379.833,179.5 66.5,180C 62.3333,181.5 59.5,184.333 58,188.5C 57.3333,407.833 57.3333,627.167 58,846.5C 59.5,850.667 62.3333,853.5 66.5,855C 424.833,855.667 783.167,855.667 1141.5,855C 1146.34,853.181 1149.17,849.681 1150,844.5C 1150.5,715.5 1150.67,586.5 1150.5,457.5C 1155.17,457.5 1159.83,457.5 1164.5,457.5C 1164.5,588.167 1164.5,718.833 1164.5,849.5C 1162.07,860.434 1155.4,867.267 1144.5,870C 1030.17,870.5 915.834,870.667 801.5,870.5C 801.5,936.833 801.5,1003.17 801.5,1069.5C 677.5,1069.5 553.5,1069.5 429.5,1069.5C 429.5,1003.17 429.5,936.833 429.5,870.5C 307.5,870.667 185.5,870.5 63.5,870C 53.1063,867.274 46.273,860.774 43,850.5C 42.3333,628.5 42.3333,406.5 43,184.5C 46.273,174.226 53.1063,167.726 63.5,165C 377.833,164.5 692.166,164.333 1006.5,164.5 Z"/></g>
<g><path style="opacity:1" fill="#fefefe" d="M 1006.5,179.5 C 1006.5,193.833 1006.5,208.167 1006.5,222.5C 1004.5,222.5 1002.5,222.5 1000.5,222.5C 1000.17,234.345 1000.51,246.012 1001.5,257.5C 1003.17,257.5 1004.83,257.5 1006.5,257.5C 1006.5,267.833 1006.5,278.167 1006.5,288.5C 707.5,288.5 408.5,288.5 109.5,288.5C 109.5,290.167 109.5,291.833 109.5,293.5C 408.5,293.5 707.5,293.5 1006.5,293.5C 1004.7,320.065 1008.53,345.732 1018,370.5C 1044.68,426.002 1088.85,454.669 1150.5,456.5C 1150.5,456.833 1150.5,457.167 1150.5,457.5C 1150.67,586.5 1150.5,715.5 1150,844.5C 1149.17,849.681 1146.34,853.181 1141.5,855C 783.167,855.667 424.833,855.667 66.5,855C 62.3333,853.5 59.5,850.667 58,846.5C 57.3333,627.167 57.3333,407.833 58,188.5C 59.5,184.333 62.3333,181.5 66.5,180C 379.833,179.5 693.166,179.333 1006.5,179.5 Z"/></g>
<g><path style="opacity:1" fill="#fcfdff" d="M 1222.5,191.5 C 1234.97,209.762 1246.97,228.429 1258.5,247.5C 1252.87,248.495 1247.21,248.829 1241.5,248.5C 1241.5,263.5 1241.5,278.5 1241.5,293.5C 1229.17,293.5 1216.83,293.5 1204.5,293.5C 1204.5,278.5 1204.5,263.5 1204.5,248.5C 1198.79,248.829 1193.13,248.495 1187.5,247.5C 1199.18,228.805 1210.84,210.139 1222.5,191.5 Z"/></g>
<g><path style="opacity:1" fill="#0d0d0d" d="M 930.5,220.5 C 932.167,220.5 933.833,220.5 935.5,220.5C 935.174,224.884 935.508,229.217 936.5,233.5C 939.625,231.649 942.958,231.149 946.5,232C 948.333,232.5 949.5,233.667 950,235.5C 950.5,242.826 950.666,250.159 950.5,257.5C 948.833,257.5 947.167,257.5 945.5,257.5C 945.666,250.825 945.5,244.158 945,237.5C 941.801,234.871 938.801,235.204 936,238.5C 935.5,244.825 935.334,251.158 935.5,257.5C 933.833,257.5 932.167,257.5 930.5,257.5C 930.5,245.167 930.5,232.833 930.5,220.5 Z"/></g>
<g><path style="opacity:1" fill="#fda02b" d="M 245.5,263.5 C 243.806,262.314 242.139,262.481 240.5,264C 229.856,265.031 224.522,260.031 224.5,249C 225.665,236.618 231.998,232.118 243.5,235.5C 244.501,231.94 244.834,227.607 244.5,222.5C 246.833,222.5 249.167,222.5 251.5,222.5C 251.5,236.167 251.5,249.833 251.5,263.5C 249.5,263.5 247.5,263.5 245.5,263.5 Z"/></g>
<g><path style="opacity:1" fill="#fdaf4f" d="M 245.5,263.5 C 247.5,263.5 249.5,263.5 251.5,263.5C 251.5,249.833 251.5,236.167 251.5,222.5C 249.167,222.5 246.833,222.5 244.5,222.5C 244.834,227.607 244.501,231.94 243.5,235.5C 243.5,230.833 243.5,226.167 243.5,221.5C 246.5,221.5 249.5,221.5 252.5,221.5C 252.5,235.833 252.5,250.167 252.5,264.5C 249.941,264.802 247.607,264.468 245.5,263.5 Z"/></g>
<g><path style="opacity:1" fill="#111111" d="M 910.5,222.5 C 915.884,221.906 920.55,223.406 924.5,227C 923.789,228.255 922.956,229.421 922,230.5C 915.508,225.725 910.175,226.725 906,233.5C 904.89,239.426 905.556,245.092 908,250.5C 913.078,254.63 917.911,254.297 922.5,249.5C 926.168,253.155 925.168,255.655 919.5,257C 910.947,259.138 904.781,256.305 901,248.5C 897.196,237.135 900.362,228.468 910.5,222.5 Z"/></g>
<g><path style="opacity:1" fill="#7b7b7b" d="M 1006.5,222.5 C 1006.5,222.833 1006.5,223.167 1006.5,223.5C 1004.83,223.5 1003.17,223.5 1001.5,223.5C 1001.5,234.833 1001.5,246.167 1001.5,257.5C 1000.51,246.012 1000.17,234.345 1000.5,222.5C 1002.5,222.5 1004.5,222.5 1006.5,222.5 Z"/></g>
<g><path style="opacity:1" fill="#fda12f" d="M 147.5,224.5 C 154.512,223.288 160.512,225.121 165.5,230C 163.641,231.558 162.141,233.391 161,235.5C 157.277,232.472 153.111,231.806 148.5,233.5C 147.141,235.306 147.475,236.806 149.5,238C 153.918,239.806 158.251,241.806 162.5,244C 166.764,248.168 167.597,253.002 165,258.5C 159.72,264.17 153.22,266.004 145.5,264C 142.274,262.894 139.607,261.061 137.5,258.5C 138.833,256.5 140.5,254.833 142.5,253.5C 145.28,255.706 148.446,257.039 152,257.5C 156.803,257.388 158.303,255.221 156.5,251C 152.952,249.059 149.286,247.393 145.5,246C 139.891,242.723 138.058,237.89 140,231.5C 141.742,228.254 144.242,225.921 147.5,224.5 Z"/></g>
<g><path style="opacity:1" fill="#33a69b" d="M 750.5,223.5 C 758.833,223.5 767.167,223.5 775.5,223.5C 775.5,224.833 775.5,226.167 775.5,227.5C 772.167,227.5 768.833,227.5 765.5,227.5C 765.5,237.5 765.5,247.5 765.5,257.5C 763.833,257.5 762.167,257.5 760.5,257.5C 760.5,247.5 760.5,237.5 760.5,227.5C 757.167,227.5 753.833,227.5 750.5,227.5C 750.5,226.167 750.5,224.833 750.5,223.5 Z"/></g>
<g><path style="opacity:1" fill="#0d0d0d" d="M 1006.5,223.5 C 1006.5,234.833 1006.5,246.167 1006.5,257.5C 1004.83,257.5 1003.17,257.5 1001.5,257.5C 1001.5,246.167 1001.5,234.833 1001.5,223.5C 1003.17,223.5 1004.83,223.5 1006.5,223.5 Z"/></g>
<g><path style="opacity:1" fill="#fed39c" d="M 313.5,225.5 C 310.5,225.5 307.5,225.5 304.5,225.5C 304.5,238.5 304.5,251.5 304.5,264.5C 303.504,251.344 303.171,238.01 303.5,224.5C 307.042,224.187 310.375,224.521 313.5,225.5 Z"/></g>
<g><path style="opacity:1" fill="#fda02c" d="M 313.5,225.5 C 316.423,233.1 319.257,240.766 322,248.5C 324.764,240.696 327.598,233.03 330.5,225.5C 333.5,225.5 336.5,225.5 339.5,225.5C 339.5,238.167 339.5,250.833 339.5,263.5C 337.167,263.5 334.833,263.5 332.5,263.5C 332.666,255.826 332.5,248.159 332,240.5C 331.487,241.527 330.987,242.527 330.5,243.5C 328.576,248.773 326.742,254.106 325,259.5C 323,260.833 321,260.833 319,259.5C 317.061,254.515 315.228,249.515 313.5,244.5C 312.91,243.234 312.41,241.901 312,240.5C 311.5,248.493 311.334,256.493 311.5,264.5C 309.167,264.5 306.833,264.5 304.5,264.5C 304.5,251.5 304.5,238.5 304.5,225.5C 307.5,225.5 310.5,225.5 313.5,225.5 Z"/></g>
<g><path style="opacity:1" fill="#feddb3" d="M 330.5,225.5 C 333.625,224.521 336.958,224.187 340.5,224.5C 340.829,238.01 340.496,251.344 339.5,264.5C 339.5,264.167 339.5,263.833 339.5,263.5C 339.5,250.833 339.5,238.167 339.5,225.5C 336.5,225.5 333.5,225.5 330.5,225.5 Z"/></g>
<g><path style="opacity:1" fill="#3fab9f" d="M 828.5,224.5 C 829.833,224.5 831.167,224.5 832.5,224.5C 832.5,226.833 832.5,229.167 832.5,231.5C 834.833,231.5 837.167,231.5 839.5,231.5C 839.5,233.167 839.5,234.833 839.5,236.5C 837.167,236.5 834.833,236.5 832.5,236.5C 832.334,241.511 832.501,246.511 833,251.5C 834.826,253.074 836.993,253.907 839.5,254C 840.337,255.011 840.67,256.178 840.5,257.5C 837.15,257.665 833.817,257.498 830.5,257C 830,256.5 829.5,256 829,255.5C 827.63,249.258 827.13,242.925 827.5,236.5C 826.167,236.5 824.833,236.5 823.5,236.5C 822.833,232.5 824.5,230.833 828.5,231.5C 828.5,229.167 828.5,226.833 828.5,224.5 Z"/></g>
<g><path style="opacity:1" fill="#111111" d="M 995.5,231.5 C 995.5,232.833 995.5,234.167 995.5,235.5C 993.265,235.205 991.265,235.539 989.5,236.5C 989.334,241.844 989.501,247.177 990,252.5C 992.041,253.423 994.208,253.756 996.5,253.5C 996.5,254.833 996.5,256.167 996.5,257.5C 993.482,257.665 990.482,257.498 987.5,257C 986.667,256.167 985.833,255.333 985,254.5C 984.501,248.509 984.334,242.509 984.5,236.5C 983.167,236.5 981.833,236.5 980.5,236.5C 980.5,234.833 980.5,233.167 980.5,231.5C 981.833,231.5 983.167,231.5 984.5,231.5C 984.5,229.167 984.5,226.833 984.5,224.5C 986.167,224.5 987.833,224.5 989.5,224.5C 989.5,226.833 989.5,229.167 989.5,231.5C 991.5,231.5 993.5,231.5 995.5,231.5 Z"/></g>
<g><path style="opacity:1" fill="#fda12d" d="M 173.5,226.5 C 176.167,226.5 178.833,226.5 181.5,226.5C 181.5,229.167 181.5,231.833 181.5,234.5C 183.833,234.5 186.167,234.5 188.5,234.5C 188.5,236.833 188.5,239.167 188.5,241.5C 186.167,241.5 183.833,241.5 181.5,241.5C 181.334,246.511 181.501,251.511 182,256.5C 184.041,257.423 186.208,257.756 188.5,257.5C 188.261,259.467 188.594,261.301 189.5,263C 183.637,265.67 178.47,264.837 174,260.5C 172.683,254.243 172.183,247.909 172.5,241.5C 171.167,241.5 169.833,241.5 168.5,241.5C 168.5,239.167 168.5,236.833 168.5,234.5C 170.167,234.5 171.833,234.5 173.5,234.5C 173.5,231.833 173.5,229.167 173.5,226.5 Z"/></g>
<g><path style="opacity:1" fill="#fda12d" d="M 412.5,226.5 C 415.167,226.5 417.833,226.5 420.5,226.5C 420.5,229.167 420.5,231.833 420.5,234.5C 422.833,234.5 425.167,234.5 427.5,234.5C 427.5,236.833 427.5,239.167 427.5,241.5C 425.167,241.5 422.833,241.5 420.5,241.5C 420.334,246.511 420.501,251.511 421,256.5C 423.041,257.423 425.208,257.756 427.5,257.5C 427.261,259.467 427.594,261.301 428.5,263C 422.637,265.67 417.47,264.837 413,260.5C 411.683,254.243 411.183,247.909 411.5,241.5C 410.167,241.5 408.833,241.5 407.5,241.5C 407.5,239.167 407.5,236.833 407.5,234.5C 409.167,234.5 410.833,234.5 412.5,234.5C 412.5,231.833 412.5,229.167 412.5,226.5 Z"/></g>
<g><path style="opacity:1" fill="#3fab9f" d="M 785.5,231.5 C 796.78,230.114 801.78,235.114 800.5,246.5C 795.167,246.5 789.833,246.5 784.5,246.5C 784.563,251.396 787.063,253.729 792,253.5C 794.145,253.604 795.979,252.937 797.5,251.5C 800.377,253.913 800.044,255.747 796.5,257C 783.241,259.408 777.407,253.908 779,240.5C 780.256,236.758 782.423,233.758 785.5,231.5 Z"/></g>
<g><path style="opacity:1" fill="#3daa9e" d="M 808.5,231.5 C 813.284,230.839 817.618,231.839 821.5,234.5C 820.833,235.833 819.833,236.833 818.5,237.5C 816.043,235.775 813.377,235.275 810.5,236C 809.253,237.494 809.253,238.994 810.5,240.5C 815.511,241.58 819.344,244.246 822,248.5C 822.753,252.493 821.253,255.326 817.5,257C 811.982,258.287 806.982,257.287 802.5,254C 803.399,252.764 804.566,251.93 806,251.5C 809.156,253.618 812.489,253.951 816,252.5C 816.667,251.167 816.667,249.833 816,248.5C 813.696,246.932 811.196,245.765 808.5,245C 803.234,240.455 803.234,235.955 808.5,231.5 Z"/></g>
<g><path style="opacity:1" fill="#0c0c0c" d="M 962.5,231.5 C 965.518,231.335 968.518,231.502 971.5,232C 973.552,232.93 975.052,234.43 976,236.5C 976.5,243.492 976.666,250.492 976.5,257.5C 974.508,257.672 972.842,257.005 971.5,255.5C 967.701,257.422 963.701,257.922 959.5,257C 954.424,249.82 956.091,244.82 964.5,242C 966.81,241.503 969.143,241.337 971.5,241.5C 971.528,239.418 970.861,237.584 969.5,236C 966.147,235.253 962.98,235.753 960,237.5C 958.054,237.237 957.388,236.237 958,234.5C 959.652,233.601 961.152,232.601 962.5,231.5 Z"/></g>
<g><path style="opacity:1" fill="#fda12f" d="M 218.5,234.5 C 218.5,244.167 218.5,253.833 218.5,263.5C 216.167,263.5 213.833,263.5 211.5,263.5C 211.631,262.624 211.298,261.957 210.5,261.5C 205.23,265.409 200.064,265.409 195,261.5C 194.138,259.913 193.471,258.246 193,256.5C 192.5,249.174 192.334,241.841 192.5,234.5C 195.5,234.5 198.5,234.5 201.5,234.5C 201.334,241.508 201.5,248.508 202,255.5C 204.966,258.265 207.633,257.932 210,254.5C 210.5,247.842 210.666,241.175 210.5,234.5C 213.167,234.5 215.833,234.5 218.5,234.5 Z"/></g>
<g><path style="opacity:1" fill="#fda231" d="M 356.5,233.5 C 368.454,233.459 373.787,239.459 372.5,251.5C 366.5,251.5 360.5,251.5 354.5,251.5C 354.393,253.903 355.393,255.736 357.5,257C 360.894,257.752 364.227,257.585 367.5,256.5C 373.029,259.844 372.696,262.344 366.5,264C 351.568,266.069 344.735,259.569 346,244.5C 347.728,238.973 351.228,235.306 356.5,233.5 Z"/></g>
<g><path style="opacity:1" fill="#fda02b" d="M 386.5,243.5 C 385.509,249.979 385.176,256.646 385.5,263.5C 382.833,263.5 380.167,263.5 377.5,263.5C 377.5,253.833 377.5,244.167 377.5,234.5C 379.833,234.5 382.167,234.5 384.5,234.5C 384.281,235.675 384.614,236.675 385.5,237.5C 391.037,232.205 396.537,232.205 402,237.5C 403.443,246.392 403.943,255.392 403.5,264.5C 400.833,264.5 398.167,264.5 395.5,264.5C 395.666,257.492 395.5,250.492 395,243.5C 392.22,240.985 389.386,240.985 386.5,243.5 Z"/></g>
<g><path style="opacity:1" fill="#fda12f" d="M 440.5,233.5 C 455.953,233.716 461.787,241.382 458,256.5C 453.042,264.388 446.209,266.555 437.5,263C 430.044,256.356 428.544,248.522 433,239.5C 435.114,236.879 437.614,234.879 440.5,233.5 Z"/></g>
<g><path style="opacity:1" fill="#fda12e" d="M 477.5,233.5 C 479.5,233.5 481.5,233.5 483.5,233.5C 484.805,239.406 482.472,242.239 476.5,242C 475.667,242.833 474.833,243.667 474,244.5C 473.5,251.158 473.334,257.825 473.5,264.5C 470.5,264.5 467.5,264.5 464.5,264.5C 464.5,254.5 464.5,244.5 464.5,234.5C 467.167,234.5 469.833,234.5 472.5,234.5C 472.351,235.552 472.517,236.552 473,237.5C 474.397,235.93 475.897,234.596 477.5,233.5 Z"/></g>
<g><path style="opacity:1" fill="#febe6e" d="M 218.5,234.5 C 219.494,244.319 219.827,254.319 219.5,264.5C 216.615,264.806 213.948,264.473 211.5,263.5C 213.833,263.5 216.167,263.5 218.5,263.5C 218.5,253.833 218.5,244.167 218.5,234.5 Z"/></g>
<g><path style="opacity:1" fill="#fda12e" d="M 256.5,234.5 C 259.448,234.223 262.281,234.556 265,235.5C 267.399,241.363 269.399,247.363 271,253.5C 273.301,247.294 275.135,240.961 276.5,234.5C 279.518,234.335 282.518,234.502 285.5,235C 281.447,247.831 276.613,260.331 271,272.5C 267.329,275.196 263.162,276.196 258.5,275.5C 257.115,270.187 259.115,267.687 264.5,268C 265.872,266.758 266.872,265.258 267.5,263.5C 263.536,253.912 259.869,244.245 256.5,234.5 Z"/></g>
<g><path style="opacity:1" fill="#eef7f6" d="M 787.5,235.5 C 793.008,234.678 795.675,237.011 795.5,242.5C 791.445,242.824 787.445,242.491 783.5,241.5C 784.467,239.21 785.8,237.21 787.5,235.5 Z"/></g>
<g><path style="opacity:1" fill="#6a6a6a" d="M 995.5,231.5 C 996.451,232.919 996.784,234.585 996.5,236.5C 994.167,236.5 991.833,236.5 989.5,236.5C 991.265,235.539 993.265,235.205 995.5,235.5C 995.5,234.167 995.5,232.833 995.5,231.5 Z"/></g>
<g><path style="opacity:1" fill="#fffbf6" d="M 357.5,240.5 C 361.851,239.533 364.185,241.2 364.5,245.5C 361.102,245.82 357.768,245.487 354.5,244.5C 355.524,243.148 356.524,241.815 357.5,240.5 Z"/></g>
<g><path style="opacity:1" fill="#fffcf9" d="M 237.5,240.5 C 239.582,240.472 241.416,241.139 243,242.5C 243.667,246.833 243.667,251.167 243,255.5C 236.577,258.791 233.41,256.624 233.5,249C 233.134,245.236 234.467,242.403 237.5,240.5 Z"/></g>
<g><path style="opacity:1" fill="#fffbf7" d="M 443.5,240.5 C 448.425,241.303 450.758,244.303 450.5,249.5C 450.337,256.876 447.171,258.876 441,255.5C 439.496,251.961 439.163,248.295 440,244.5C 440.69,242.65 441.856,241.316 443.5,240.5 Z"/></g>
<g><path style="opacity:1" fill="#febe6d" d="M 386.5,243.5 C 386.5,250.5 386.5,257.5 386.5,264.5C 383.287,264.81 380.287,264.477 377.5,263.5C 380.167,263.5 382.833,263.5 385.5,263.5C 385.176,256.646 385.509,249.979 386.5,243.5 Z"/></g>
<g><path style="opacity:1" fill="#f4f4f4" d="M 968.5,244.5 C 969.5,244.5 970.5,244.5 971.5,244.5C 972.074,251.782 968.908,254.449 962,252.5C 961.75,247.913 963.917,245.246 968.5,244.5 Z"/></g>
<g><path style="opacity:1" fill="#fed39e" d="M 313.5,244.5 C 312.833,251.167 312.167,257.833 311.5,264.5C 311.334,256.493 311.5,248.493 312,240.5C 312.41,241.901 312.91,243.234 313.5,244.5 Z"/></g>
<g><path style="opacity:1" fill="#feb963" d="M 339.5,263.5 C 339.5,263.833 339.5,264.167 339.5,264.5C 336.833,264.5 334.167,264.5 331.5,264.5C 331.825,257.313 331.491,250.313 330.5,243.5C 330.987,242.527 331.487,241.527 332,240.5C 332.5,248.159 332.666,255.826 332.5,263.5C 334.833,263.5 337.167,263.5 339.5,263.5 Z"/></g>
<g><path style="opacity:1" fill="#121212" d="M 1006.5,288.5 C 1006.5,290.167 1006.5,291.833 1006.5,293.5C 707.5,293.5 408.5,293.5 109.5,293.5C 109.5,291.833 109.5,290.167 109.5,288.5C 408.5,288.5 707.5,288.5 1006.5,288.5 Z"/></g>
<g><path style="opacity:1" fill="#111111" d="M 601.5,370.5 C 603.091,511.162 604.091,651.828 604.5,792.5C 602.833,792.5 601.167,792.5 599.5,792.5C 599.829,778.656 599.496,764.99 598.5,751.5C 598.084,649.165 597.417,546.832 596.5,444.5C 596.5,413.833 596.5,383.167 596.5,352.5C 597.833,352.5 599.167,352.5 600.5,352.5C 600.177,358.69 600.51,364.69 601.5,370.5 Z"/></g>
<g><path style="opacity:1" fill="#454545" d="M 601.5,370.5 C 600.51,364.69 600.177,358.69 600.5,352.5C 599.167,352.5 597.833,352.5 596.5,352.5C 596.5,383.167 596.5,413.833 596.5,444.5C 595.502,413.671 595.169,382.671 595.5,351.5C 597.5,351.5 599.5,351.5 601.5,351.5C 601.5,357.833 601.5,364.167 601.5,370.5 Z"/></g>
<g><path style="opacity:1" fill="#070707" d="M 192.5,360.5 C 192.5,367.833 192.5,375.167 192.5,382.5C 190.833,382.5 189.167,382.5 187.5,382.5C 187.5,379.5 187.5,376.5 187.5,373.5C 186.5,373.5 185.5,373.5 184.5,373.5C 184.5,376.5 184.5,379.5 184.5,382.5C 182.833,382.5 181.167,382.5 179.5,382.5C 179.5,375.5 179.5,368.5 179.5,361.5C 181.167,361.5 182.833,361.5 184.5,361.5C 184.5,364.167 184.5,366.833 184.5,369.5C 185.5,369.5 186.5,369.5 187.5,369.5C 187.5,366.5 187.5,363.5 187.5,360.5C 189.167,360.5 190.833,360.5 192.5,360.5 Z"/></g>
<g><path style="opacity:1" fill="#050505" d="M 228.5,360.5 C 228.5,364.5 228.5,368.5 228.5,372.5C 230.167,372.5 231.833,372.5 233.5,372.5C 233.5,373.833 233.5,375.167 233.5,376.5C 231.833,376.5 230.167,376.5 228.5,376.5C 228.5,380.833 228.5,385.167 228.5,389.5C 226.833,389.5 225.167,389.5 223.5,389.5C 223.5,379.833 223.5,370.167 223.5,360.5C 225.167,360.5 226.833,360.5 228.5,360.5 Z"/></g>
<g><path style="opacity:1" fill="#b2b2b2" d="M 228.5,360.5 C 229.482,363.962 229.815,367.629 229.5,371.5C 231.099,371.232 232.432,371.566 233.5,372.5C 231.833,372.5 230.167,372.5 228.5,372.5C 228.5,368.5 228.5,364.5 228.5,360.5 Z"/></g>
<g><path style="opacity:1" fill="#030303" d="M 262.5,360.5 C 264.167,360.5 265.833,360.5 267.5,360.5C 267.5,368.167 267.5,375.833 267.5,383.5C 265.833,383.5 264.167,383.5 262.5,383.5C 262.5,375.833 262.5,368.167 262.5,360.5 Z"/></g>
<g><path style="opacity:1" fill="#060606" d="M 336.5,388.5 C 336.5,383.833 336.5,379.167 336.5,374.5C 333.941,374.198 331.607,374.532 329.5,375.5C 329.5,377.833 329.5,380.167 329.5,382.5C 323.5,382.5 317.5,382.5 311.5,382.5C 311.5,376.167 311.5,369.833 311.5,363.5C 313.167,363.5 314.833,363.5 316.5,363.5C 316.5,365.167 316.5,366.833 316.5,368.5C 318.833,368.5 321.167,368.5 323.5,368.5C 324.451,367.081 324.784,365.415 324.5,363.5C 325.833,363.5 327.167,363.5 328.5,363.5C 328.198,366.059 328.532,368.393 329.5,370.5C 331.833,370.5 334.167,370.5 336.5,370.5C 336.5,367.167 336.5,363.833 336.5,360.5C 338.167,360.5 339.833,360.5 341.5,360.5C 341.5,369.833 341.5,379.167 341.5,388.5C 339.833,388.5 338.167,388.5 336.5,388.5 Z"/></g>
<g><path style="opacity:1" fill="#111111" d="M 245.5,362.5 C 247.167,362.5 248.833,362.5 250.5,362.5C 249.755,369.753 252.755,374.753 259.5,377.5C 258.5,378.833 257.5,380.167 256.5,381.5C 252.983,379.992 250.149,377.659 248,374.5C 245.697,379.058 242.197,381.058 237.5,380.5C 236.674,379.549 236.508,378.549 237,377.5C 242.949,374.269 245.782,369.269 245.5,362.5 Z"/></g>
<g><path style="opacity:1" fill="#0d0d0d" d="M 161.5,363.5 C 166.5,363.5 171.5,363.5 176.5,363.5C 176.429,372.973 171.929,379.306 163,382.5C 161.5,382.333 160.667,381.5 160.5,380C 163.61,377.895 166.443,375.395 169,372.5C 170.009,370.975 170.509,369.308 170.5,367.5C 167.5,367.5 164.5,367.5 161.5,367.5C 161.5,366.167 161.5,364.833 161.5,363.5 Z"/></g>
<g><path style="opacity:1" fill="#0b0b0b" d="M 199.5,363.5 C 206.167,363.5 212.833,363.5 219.5,363.5C 219.414,367.857 219.08,372.19 218.5,376.5C 216.833,376.5 215.167,376.5 213.5,376.5C 213.5,373.5 213.5,370.5 213.5,367.5C 208.833,367.5 204.167,367.5 199.5,367.5C 199.5,366.167 199.5,364.833 199.5,363.5 Z"/></g>
<g><path style="opacity:1" fill="#8d8d8d" d="M 316.5,363.5 C 314.833,363.5 313.167,363.5 311.5,363.5C 311.5,369.833 311.5,376.167 311.5,382.5C 310.509,376.021 310.176,369.354 310.5,362.5C 312.735,362.205 314.735,362.539 316.5,363.5 Z"/></g>
<g><path style="opacity:1" fill="#5d5d5d" d="M 329.5,370.5 C 328.532,368.393 328.198,366.059 328.5,363.5C 327.167,363.5 325.833,363.5 324.5,363.5C 324.784,365.415 324.451,367.081 323.5,368.5C 323.5,366.5 323.5,364.5 323.5,362.5C 325.5,362.5 327.5,362.5 329.5,362.5C 329.5,365.167 329.5,367.833 329.5,370.5 Z"/></g>
<g><path style="opacity:1" fill="#010101" d="M 305.5,394.5 C 299.5,394.5 293.5,394.5 287.5,394.5C 287.5,393.167 287.5,391.833 287.5,390.5C 289.5,390.5 291.5,390.5 293.5,390.5C 293.5,383.833 293.5,377.167 293.5,370.5C 291.833,370.5 290.167,370.5 288.5,370.5C 288.5,369.167 288.5,367.833 288.5,366.5C 292.085,365.417 295.751,364.751 299.5,364.5C 299.5,373.167 299.5,381.833 299.5,390.5C 301.5,390.5 303.5,390.5 305.5,390.5C 305.5,391.833 305.5,393.167 305.5,394.5 Z"/></g>
<g><path style="opacity:1" fill="#919191" d="M 762.5,365.5 C 764.265,364.539 766.265,364.205 768.5,364.5C 768.5,365.833 768.5,367.167 768.5,368.5C 767.596,367.791 767.263,366.791 767.5,365.5C 765.833,365.5 764.167,365.5 762.5,365.5 Z"/></g>
<g><path style="opacity:1" fill="#020202" d="M 705.5,403.5 C 705.5,396.167 705.5,388.833 705.5,381.5C 702.833,381.5 700.167,381.5 697.5,381.5C 697.5,380.167 697.5,378.833 697.5,377.5C 700.167,377.5 702.833,377.5 705.5,377.5C 705.5,373.5 705.5,369.5 705.5,365.5C 707.167,365.5 708.833,365.5 710.5,365.5C 710.5,378.167 710.5,390.833 710.5,403.5C 708.833,403.5 707.167,403.5 705.5,403.5 Z"/></g>
<g><path style="opacity:1" fill="#1b1b1b" d="M 762.5,365.5 C 764.167,365.5 765.833,365.5 767.5,365.5C 767.263,366.791 767.596,367.791 768.5,368.5C 770.833,368.5 773.167,368.5 775.5,368.5C 775.5,370.167 775.5,371.833 775.5,373.5C 768.5,373.5 761.5,373.5 754.5,373.5C 754.5,371.833 754.5,370.167 754.5,368.5C 757.167,368.5 759.833,368.5 762.5,368.5C 762.5,367.5 762.5,366.5 762.5,365.5 Z"/></g>
<g><path style="opacity:1" fill="#767676" d="M 781.5,365.5 C 781.5,368.5 781.5,371.5 781.5,374.5C 779.833,374.5 778.167,374.5 776.5,374.5C 776.5,375.5 776.5,376.5 776.5,377.5C 778.167,377.5 779.833,377.5 781.5,377.5C 781.768,379.099 781.434,380.432 780.5,381.5C 780.5,380.5 780.5,379.5 780.5,378.5C 778.833,378.5 777.167,378.5 775.5,378.5C 775.5,376.833 775.5,375.167 775.5,373.5C 777.167,373.5 778.833,373.5 780.5,373.5C 780.194,370.615 780.527,367.948 781.5,365.5 Z"/></g>
<g><path style="opacity:1" fill="#000000" d="M 781.5,365.5 C 783.167,365.5 784.833,365.5 786.5,365.5C 786.5,373.5 786.5,381.5 786.5,389.5C 784.833,389.5 783.167,389.5 781.5,389.5C 781.5,388.167 781.5,386.833 781.5,385.5C 779.833,385.5 778.167,385.5 776.5,385.5C 776.5,384.167 776.5,382.833 776.5,381.5C 777.833,381.5 779.167,381.5 780.5,381.5C 781.434,380.432 781.768,379.099 781.5,377.5C 779.833,377.5 778.167,377.5 776.5,377.5C 776.5,376.5 776.5,375.5 776.5,374.5C 778.167,374.5 779.833,374.5 781.5,374.5C 781.5,371.5 781.5,368.5 781.5,365.5 Z"/></g>
<g><path style="opacity:1" fill="#020202" d="M 854.5,365.5 C 856.167,365.5 857.833,365.5 859.5,365.5C 859.5,374.833 859.5,384.167 859.5,393.5C 857.833,393.5 856.167,393.5 854.5,393.5C 854.5,388.833 854.5,384.167 854.5,379.5C 852.167,379.5 849.833,379.5 847.5,379.5C 847.5,382.167 847.5,384.833 847.5,387.5C 841.5,387.5 835.5,387.5 829.5,387.5C 829.5,381.167 829.5,374.833 829.5,368.5C 831.167,368.5 832.833,368.5 834.5,368.5C 834.5,370.167 834.5,371.833 834.5,373.5C 837.167,373.5 839.833,373.5 842.5,373.5C 842.5,371.833 842.5,370.167 842.5,368.5C 844.167,368.5 845.833,368.5 847.5,368.5C 847.5,370.833 847.5,373.167 847.5,375.5C 849.833,375.5 852.167,375.5 854.5,375.5C 854.5,372.167 854.5,368.833 854.5,365.5 Z"/></g>
<g><path style="opacity:1" fill="#101010" d="M 730.5,365.5 C 732.5,365.5 734.5,365.5 736.5,365.5C 738.205,371.371 742.205,374.371 748.5,374.5C 748.923,377.243 747.756,378.576 745,378.5C 740.753,377.544 737.087,375.544 734,372.5C 730.566,375.967 726.399,377.967 721.5,378.5C 719.833,378.167 718.833,377.167 718.5,375.5C 722.858,374.457 726.692,372.457 730,369.5C 730.49,368.207 730.657,366.873 730.5,365.5 Z"/></g>
<g><path style="opacity:1" fill="#0d0d0d" d="M 687.5,368.5 C 689.167,368.5 690.833,368.5 692.5,368.5C 691.8,377.754 694.8,385.421 701.5,391.5C 700.5,392.833 699.5,394.167 698.5,395.5C 694.758,392.926 691.925,389.593 690,385.5C 688.698,389.274 686.531,392.441 683.5,395C 681.094,395.779 679.427,394.946 678.5,392.5C 685.43,386.05 688.43,378.05 687.5,368.5 Z"/></g>
<g><path style="opacity:1" fill="#101010" d="M 812.5,369.5 C 814.167,369.5 815.833,369.5 817.5,369.5C 817.5,378.167 817.5,386.833 817.5,395.5C 819.5,395.5 821.5,395.5 823.5,395.5C 823.5,397.167 823.5,398.833 823.5,400.5C 817.5,400.5 811.5,400.5 805.5,400.5C 805.5,398.833 805.5,397.167 805.5,395.5C 807.5,395.5 809.5,395.5 811.5,395.5C 811.5,388.833 811.5,382.167 811.5,375.5C 809.833,375.5 808.167,375.5 806.5,375.5C 806.5,374.167 806.5,372.833 806.5,371.5C 808.786,371.405 810.786,370.738 812.5,369.5 Z"/></g>
<g><path style="opacity:1" fill="#0c0c0c" d="M 204.5,372.5 C 206.167,372.5 207.833,372.5 209.5,372.5C 209.5,374.833 209.5,377.167 209.5,379.5C 213.5,379.167 217.5,378.833 221.5,378.5C 221.5,379.833 221.5,381.167 221.5,382.5C 213.525,383.276 205.525,383.61 197.5,383.5C 197.5,382.167 197.5,380.833 197.5,379.5C 199.833,379.5 202.167,379.5 204.5,379.5C 204.5,377.167 204.5,374.833 204.5,372.5 Z"/></g>
<g><path style="opacity:1" fill="#f0f0f0" d="M 316.5,372.5 C 318.833,372.5 321.167,372.5 323.5,372.5C 323.5,374.5 323.5,376.5 323.5,378.5C 321.167,378.5 318.833,378.5 316.5,378.5C 316.5,376.5 316.5,374.5 316.5,372.5 Z"/></g>
<g><path style="opacity:1" fill="#878787" d="M 329.5,375.5 C 331.607,374.532 333.941,374.198 336.5,374.5C 336.5,379.167 336.5,383.833 336.5,388.5C 335.515,384.366 335.182,380.032 335.5,375.5C 333.5,375.5 331.5,375.5 329.5,375.5 Z"/></g>
<g><path style="opacity:1" fill="#0f0f0f" d="M 761.5,374.5 C 768.031,373.075 772.364,375.408 774.5,381.5C 773.438,386.62 770.271,388.954 765,388.5C 758.264,388.431 755.598,385.097 757,378.5C 758.397,376.93 759.897,375.596 761.5,374.5 Z"/></g>
<g><path style="opacity:1" fill="#888888" d="M 841.5,383.5 C 841.5,381.833 841.5,380.167 841.5,378.5C 839.5,378.5 837.5,378.5 835.5,378.5C 835.5,380.167 835.5,381.833 835.5,383.5C 834.539,381.735 834.205,379.735 834.5,377.5C 837.167,377.5 839.833,377.5 842.5,377.5C 842.795,379.735 842.461,381.735 841.5,383.5 Z"/></g>
<g><path style="opacity:1" fill="#fcfcfc" d="M 841.5,383.5 C 839.5,383.5 837.5,383.5 835.5,383.5C 835.5,381.833 835.5,380.167 835.5,378.5C 837.5,378.5 839.5,378.5 841.5,378.5C 841.5,380.167 841.5,381.833 841.5,383.5 Z"/></g>
<g><path style="opacity:1" fill="#e8e8e8" d="M 763.5,378.5 C 767.509,378.014 769.342,379.68 769,383.5C 766.936,384.591 764.769,384.758 762.5,384C 761.156,381.856 761.49,380.023 763.5,378.5 Z"/></g>
<g><path style="opacity:1" fill="#020202" d="M 750.5,380.5 C 750.5,381.833 750.5,383.167 750.5,384.5C 745.637,384.181 740.97,384.514 736.5,385.5C 739.337,387.402 742.671,388.069 746.5,387.5C 746.5,390.5 746.5,393.5 746.5,396.5C 739.5,396.5 732.5,396.5 725.5,396.5C 725.263,397.791 725.596,398.791 726.5,399.5C 733.5,399.5 740.5,399.5 747.5,399.5C 747.5,400.833 747.5,402.167 747.5,403.5C 738.5,403.5 729.5,403.5 720.5,403.5C 720.5,400.167 720.5,396.833 720.5,393.5C 748.5,392.833 748.5,392.167 720.5,391.5C 720.5,390.167 720.5,388.833 720.5,387.5C 724.167,387.5 727.833,387.5 731.5,387.5C 731.5,386.5 731.5,385.5 731.5,384.5C 726.5,384.5 721.5,384.5 716.5,384.5C 716.5,383.167 716.5,381.833 716.5,380.5C 727.833,380.5 739.167,380.5 750.5,380.5 Z"/></g>
<g><path style="opacity:1" fill="#c5c5c5" d="M 192.5,360.5 C 193.833,373.167 193.833,385.833 192.5,398.5C 192.5,393.833 192.5,389.167 192.5,384.5C 183.833,384.5 175.167,384.5 166.5,384.5C 170.298,383.517 174.298,383.183 178.5,383.5C 178.175,375.981 178.508,368.648 179.5,361.5C 179.5,368.5 179.5,375.5 179.5,382.5C 181.167,382.5 182.833,382.5 184.5,382.5C 185.5,383.833 186.5,383.833 187.5,382.5C 189.167,382.5 190.833,382.5 192.5,382.5C 192.5,375.167 192.5,367.833 192.5,360.5 Z"/></g>
<g><path style="opacity:1" fill="#fafafa" d="M 187.5,382.5 C 186.5,383.833 185.5,383.833 184.5,382.5C 184.5,379.5 184.5,376.5 184.5,373.5C 185.5,373.5 186.5,373.5 187.5,373.5C 187.5,376.5 187.5,379.5 187.5,382.5 Z"/></g>
<g><path style="opacity:1" fill="#afafaf" d="M 697.5,381.5 C 700.167,381.5 702.833,381.5 705.5,381.5C 705.5,388.833 705.5,396.167 705.5,403.5C 704.509,396.687 704.175,389.687 704.5,382.5C 701.941,382.802 699.607,382.468 697.5,381.5 Z"/></g>
<g><path style="opacity:1" fill="#000000" d="M 166.5,384.5 C 175.167,384.5 183.833,384.5 192.5,384.5C 192.5,389.167 192.5,393.833 192.5,398.5C 190.833,398.5 189.167,398.5 187.5,398.5C 187.5,395.167 187.5,391.833 187.5,388.5C 180.5,388.5 173.5,388.5 166.5,388.5C 166.5,387.167 166.5,385.833 166.5,384.5 Z"/></g>
<g><path style="opacity:1" fill="#767676" d="M 267.5,398.5 C 267.5,394.167 267.5,389.833 267.5,385.5C 259.167,385.5 250.833,385.5 242.5,385.5C 242.5,386.833 242.5,388.167 242.5,389.5C 241.549,388.081 241.216,386.415 241.5,384.5C 250.5,384.5 259.5,384.5 268.5,384.5C 268.819,389.363 268.486,394.03 267.5,398.5 Z"/></g>
<g><path style="opacity:1" fill="#acacac" d="M 716.5,384.5 C 721.5,384.5 726.5,384.5 731.5,384.5C 731.5,385.5 731.5,386.5 731.5,387.5C 727.833,387.5 724.167,387.5 720.5,387.5C 723.641,386.679 726.975,386.179 730.5,386C 725.649,385.826 720.982,385.326 716.5,384.5 Z"/></g>
<g><path style="opacity:1" fill="#9c9c9c" d="M 750.5,380.5 C 751.451,381.919 751.784,383.585 751.5,385.5C 746.5,385.5 741.5,385.5 736.5,385.5C 740.97,384.514 745.637,384.181 750.5,384.5C 750.5,383.167 750.5,381.833 750.5,380.5 Z"/></g>
<g><path style="opacity:1" fill="#020202" d="M 267.5,398.5 C 265.833,398.5 264.167,398.5 262.5,398.5C 262.5,395.5 262.5,392.5 262.5,389.5C 255.833,389.5 249.167,389.5 242.5,389.5C 242.5,388.167 242.5,386.833 242.5,385.5C 250.833,385.5 259.167,385.5 267.5,385.5C 267.5,389.833 267.5,394.167 267.5,398.5 Z"/></g>
<g><path style="opacity:1" fill="#181818" d="M 316.5,386.5 C 318.167,386.5 319.833,386.5 321.5,386.5C 321.5,388.833 321.5,391.167 321.5,393.5C 328.5,393.5 335.5,393.5 342.5,393.5C 342.5,395.167 342.5,396.833 342.5,398.5C 333.833,398.5 325.167,398.5 316.5,398.5C 316.5,394.5 316.5,390.5 316.5,386.5 Z"/></g>
<g><path style="opacity:1" fill="#010101" d="M 203.5,386.5 C 205.167,386.5 206.833,386.5 208.5,386.5C 208.5,388.833 208.5,391.167 208.5,393.5C 215.313,394.491 222.313,394.825 229.5,394.5C 229.5,395.5 229.5,396.5 229.5,397.5C 220.833,397.5 212.167,397.5 203.5,397.5C 203.5,393.833 203.5,390.167 203.5,386.5 Z"/></g>
<g><path style="opacity:1" fill="#a1a1a1" d="M 776.5,385.5 C 778.167,385.5 779.833,385.5 781.5,385.5C 781.5,386.833 781.5,388.167 781.5,389.5C 783.167,389.5 784.833,389.5 786.5,389.5C 784.833,390.167 783.167,390.833 781.5,391.5C 780.508,391.672 779.842,391.338 779.5,390.5C 780.434,389.432 780.768,388.099 780.5,386.5C 778.901,386.768 777.568,386.434 776.5,385.5 Z"/></g>
<g><path style="opacity:1" fill="#0c0c0c" d="M 779.5,390.5 C 779.842,391.338 780.508,391.672 781.5,391.5C 787.236,394.016 787.903,397.516 783.5,402C 777.569,403.471 771.569,403.804 765.5,403C 758.609,398.445 758.942,394.445 766.5,391C 770.821,390.501 775.154,390.334 779.5,390.5 Z"/></g>
<g><path style="opacity:1" fill="#181818" d="M 834.5,391.5 C 836.167,391.5 837.833,391.5 839.5,391.5C 839.198,394.059 839.532,396.393 840.5,398.5C 847.167,398.5 853.833,398.5 860.5,398.5C 860.5,400.167 860.5,401.833 860.5,403.5C 851.833,403.5 843.167,403.5 834.5,403.5C 834.5,399.5 834.5,395.5 834.5,391.5 Z"/></g>
<g><path style="opacity:1" fill="#797979" d="M 834.5,391.5 C 836.265,390.539 838.265,390.205 840.5,390.5C 840.5,393.167 840.5,395.833 840.5,398.5C 839.532,396.393 839.198,394.059 839.5,391.5C 837.833,391.5 836.167,391.5 834.5,391.5 Z"/></g>
<g><path style="opacity:1" fill="#4b4b4b" d="M 287.5,390.5 C 287.5,391.833 287.5,393.167 287.5,394.5C 293.5,394.5 299.5,394.5 305.5,394.5C 299.355,395.49 293.022,395.823 286.5,395.5C 286.216,393.585 286.549,391.919 287.5,390.5 Z"/></g>
<g><path style="opacity:1" fill="#ededed" d="M 767.5,394.5 C 771.182,394.335 774.848,394.501 778.5,395C 780.592,395.953 780.925,397.286 779.5,399C 775.5,399.667 771.5,399.667 767.5,399C 766.272,397.51 766.272,396.01 767.5,394.5 Z"/></g>
<g><path style="opacity:1" fill="#585858" d="M 746.5,387.5 C 747.479,390.625 747.813,393.958 747.5,397.5C 740.087,396.872 733.087,397.539 726.5,399.5C 725.596,398.791 725.263,397.791 725.5,396.5C 732.5,396.5 739.5,396.5 746.5,396.5C 746.5,393.5 746.5,390.5 746.5,387.5 Z"/></g>
<g><path style="opacity:1" fill="#666666" d="M 203.5,386.5 C 203.5,390.167 203.5,393.833 203.5,397.5C 212.167,397.5 220.833,397.5 229.5,397.5C 229.5,396.5 229.5,395.5 229.5,394.5C 222.313,394.825 215.313,394.491 208.5,393.5C 215.833,393.5 223.167,393.5 230.5,393.5C 230.5,395.167 230.5,396.833 230.5,398.5C 221.167,398.5 211.833,398.5 202.5,398.5C 202.183,394.298 202.517,390.298 203.5,386.5 Z"/></g>
<g><path style="opacity:1" fill="#0f0f0f" d="M 178.5,448.5 C 179.833,448.5 181.167,448.5 182.5,448.5C 182.5,452.167 182.5,455.833 182.5,459.5C 183.833,459.5 185.167,459.5 186.5,459.5C 186.5,460.833 186.5,462.167 186.5,463.5C 185.167,463.5 183.833,463.5 182.5,463.5C 182.5,468.5 182.5,473.5 182.5,478.5C 181.167,478.5 179.833,478.5 178.5,478.5C 178.5,468.5 178.5,458.5 178.5,448.5 Z"/></g>
<g><path style="opacity:1" fill="#090909" d="M 277.5,448.5 C 278.833,448.5 280.167,448.5 281.5,448.5C 281.5,458.5 281.5,468.5 281.5,478.5C 280.167,478.5 278.833,478.5 277.5,478.5C 277.5,468.5 277.5,458.5 277.5,448.5 Z"/></g>
<g><path style="opacity:1" fill="#1a1a1a" d="M 346.5,448.5 C 347.833,448.5 349.167,448.5 350.5,448.5C 350.5,458.5 350.5,468.5 350.5,478.5C 349.167,478.5 347.833,478.5 346.5,478.5C 346.5,468.5 346.5,458.5 346.5,448.5 Z"/></g>
<g><path style="opacity:1" fill="#010101" d="M 451.5,448.5 C 452.833,448.5 454.167,448.5 455.5,448.5C 455.5,455.167 455.5,461.833 455.5,468.5C 454.167,468.5 452.833,468.5 451.5,468.5C 451.5,465.5 451.5,462.5 451.5,459.5C 449.833,459.5 448.167,459.5 446.5,459.5C 446.5,458.5 446.5,457.5 446.5,456.5C 448.167,456.5 449.833,456.5 451.5,456.5C 451.5,453.833 451.5,451.167 451.5,448.5 Z"/></g>
<g><path style="opacity:1" fill="#0f0f0f" d="M 195.5,449.5 C 199.846,449.334 204.179,449.501 208.5,450C 212.104,451.334 213.271,453.834 212,457.5C 210.509,459.004 208.676,459.837 206.5,460C 202.833,460.667 199.167,460.667 195.5,460C 190.232,456.504 190.232,453.004 195.5,449.5 Z"/></g>
<g><path style="opacity:1" fill="#0f0f0f" d="M 337.5,463.5 C 337.03,466.745 335.697,469.579 333.5,472C 329.006,472.832 326.172,470.998 325,466.5C 323.959,461.56 324.626,456.894 327,452.5C 329.284,450.016 331.784,449.849 334.5,452C 336.232,454.645 337.899,457.145 339.5,459.5C 340.479,456.375 340.813,453.042 340.5,449.5C 341.5,449.5 342.5,449.5 343.5,449.5C 343.5,458.5 343.5,467.5 343.5,476.5C 342.5,476.5 341.5,476.5 340.5,476.5C 340.5,471.833 340.5,467.167 340.5,462.5C 339.209,462.263 338.209,462.596 337.5,463.5 Z"/></g>
<g><path style="opacity:1" fill="#838383" d="M 337.5,463.5 C 338.209,462.596 339.209,462.263 340.5,462.5C 340.5,467.167 340.5,471.833 340.5,476.5C 341.5,476.5 342.5,476.5 343.5,476.5C 343.5,467.5 343.5,458.5 343.5,449.5C 342.5,449.5 341.5,449.5 340.5,449.5C 340.813,453.042 340.479,456.375 339.5,459.5C 339.5,455.833 339.5,452.167 339.5,448.5C 341.167,448.5 342.833,448.5 344.5,448.5C 344.5,458.167 344.5,467.833 344.5,477.5C 342.833,477.5 341.167,477.5 339.5,477.5C 340.103,472.381 339.436,467.715 337.5,463.5 Z"/></g>
<g><path style="opacity:1" fill="#121212" d="M 389.5,463.5 C 380.5,463.5 371.5,463.5 362.5,463.5C 362.5,462.5 362.5,461.5 362.5,460.5C 366.555,460.824 370.555,460.491 374.5,459.5C 372.138,458.729 369.804,457.895 367.5,457C 364.353,452.952 365.353,450.285 370.5,449C 375.257,448.19 379.924,448.524 384.5,450C 387.859,452.034 388.192,454.368 385.5,457C 383.105,457.681 380.772,458.515 378.5,459.5C 382.107,460.489 385.774,460.823 389.5,460.5C 389.5,461.5 389.5,462.5 389.5,463.5 Z"/></g>
<g><path style="opacity:1" fill="#0f0f0f" d="M 399.5,449.5 C 404.667,449.09 409.667,449.757 414.5,451.5C 417.765,456.479 416.432,459.646 410.5,461C 405.201,462.253 400.368,461.42 396,458.5C 395.333,456.5 395.333,454.5 396,452.5C 397.518,451.837 398.685,450.837 399.5,449.5 Z"/></g>
<g><path style="opacity:1" fill="#0f0f0f" d="M 467.5,449.5 C 472.667,449.09 477.667,449.757 482.5,451.5C 485.765,456.479 484.432,459.646 478.5,461C 473.201,462.253 468.368,461.42 464,458.5C 463.333,456.5 463.333,454.5 464,452.5C 465.518,451.837 466.685,450.837 467.5,449.5 Z"/></g>
<g><path style="opacity:1" fill="#bababa" d="M 160.5,451.5 C 164.97,450.514 169.637,450.181 174.5,450.5C 174.5,452.167 174.5,453.833 174.5,455.5C 171.167,455.5 167.833,455.5 164.5,455.5C 167.287,454.523 170.287,454.19 173.5,454.5C 173.5,453.5 173.5,452.5 173.5,451.5C 169.167,451.5 164.833,451.5 160.5,451.5 Z"/></g>
<g><path style="opacity:1" fill="#090909" d="M 233.5,450.5 C 233.5,452.167 233.5,453.833 233.5,455.5C 238.032,455.818 242.366,455.485 246.5,454.5C 246.5,453.167 246.5,451.833 246.5,450.5C 247.833,450.5 249.167,450.5 250.5,450.5C 250.5,455.5 250.5,460.5 250.5,465.5C 247.833,465.5 245.167,465.5 242.5,465.5C 242.5,467.5 242.5,469.5 242.5,471.5C 246.167,471.5 249.833,471.5 253.5,471.5C 253.5,472.5 253.5,473.5 253.5,474.5C 244.833,474.5 236.167,474.5 227.5,474.5C 227.5,473.5 227.5,472.5 227.5,471.5C 231.167,471.5 234.833,471.5 238.5,471.5C 238.5,469.5 238.5,467.5 238.5,465.5C 235.5,465.5 232.5,465.5 229.5,465.5C 229.5,460.5 229.5,455.5 229.5,450.5C 230.833,450.5 232.167,450.5 233.5,450.5 Z"/></g>
<g><path style="opacity:1" fill="#111111" d="M 319.5,452.5 C 316.753,452.187 314.086,452.52 311.5,453.5C 311.624,454.107 311.957,454.44 312.5,454.5C 314.734,456.446 317.401,457.613 320.5,458C 319.774,459.397 318.607,460.231 317,460.5C 313.846,459.84 311.013,458.506 308.5,456.5C 305.276,459.186 301.609,460.353 297.5,460C 297.043,459.586 296.709,459.086 296.5,458.5C 299.31,457.348 301.976,456.015 304.5,454.5C 305.043,454.44 305.376,454.107 305.5,453.5C 302.914,452.52 300.247,452.187 297.5,452.5C 297.5,451.5 297.5,450.5 297.5,449.5C 304.833,449.5 312.167,449.5 319.5,449.5C 319.5,450.5 319.5,451.5 319.5,452.5 Z"/></g>
<g><path style="opacity:1" fill="#484848" d="M 445.5,454.5 C 445.5,453.5 445.5,452.5 445.5,451.5C 441.445,451.176 437.445,451.509 433.5,452.5C 436.306,453.168 438.972,453.834 441.5,454.5C 438.5,454.5 435.5,454.5 432.5,454.5C 432.5,453.167 432.5,451.833 432.5,450.5C 437.167,450.5 441.833,450.5 446.5,450.5C 446.768,452.099 446.434,453.432 445.5,454.5 Z"/></g>
<g><path style="opacity:1" fill="#101010" d="M 493.5,450.5 C 497.192,449.971 500.358,450.971 503,453.5C 503.667,455.167 503.667,456.833 503,458.5C 500.429,460.976 498.929,463.976 498.5,467.5C 497.167,467.5 495.833,467.5 494.5,467.5C 495.897,463.135 497.231,458.802 498.5,454.5C 496.085,454.627 493.751,454.793 491.5,455C 491.043,454.586 490.709,454.086 490.5,453.5C 491.77,452.712 492.77,451.712 493.5,450.5 Z"/></g>
<g><path style="opacity:1" fill="#121212" d="M 695.5,450.5 C 696.833,450.5 698.167,450.5 699.5,450.5C 699.5,456.5 699.5,462.5 699.5,468.5C 698.167,468.5 696.833,468.5 695.5,468.5C 695.5,466.167 695.5,463.833 695.5,461.5C 694.167,461.5 692.833,461.5 691.5,461.5C 691.5,460.167 691.5,458.833 691.5,457.5C 692.833,457.5 694.167,457.5 695.5,457.5C 695.5,455.167 695.5,452.833 695.5,450.5 Z"/></g>
<g><path style="opacity:1" fill="#232323" d="M 723.5,450.5 C 725.167,450.5 726.833,450.5 728.5,450.5C 728.5,452.5 728.5,454.5 728.5,456.5C 729.833,456.5 731.167,456.5 732.5,456.5C 732.5,457.833 732.5,459.167 732.5,460.5C 731.167,460.5 729.833,460.5 728.5,460.5C 728.5,462.5 728.5,464.5 728.5,466.5C 726.833,466.5 725.167,466.5 723.5,466.5C 723.5,461.167 723.5,455.833 723.5,450.5 Z"/></g>
<g><path style="opacity:1" fill="#0f0f0f" d="M 791.5,450.5 C 792.833,450.5 794.167,450.5 795.5,450.5C 795.5,452.833 795.5,455.167 795.5,457.5C 796.833,457.5 798.167,457.5 799.5,457.5C 799.5,458.5 799.5,459.5 799.5,460.5C 798.178,460.33 797.011,460.663 796,461.5C 795.503,463.81 795.337,466.143 795.5,468.5C 794.167,468.5 792.833,468.5 791.5,468.5C 791.5,462.5 791.5,456.5 791.5,450.5 Z"/></g>
<g><path style="opacity:1" fill="#0a0a0a" d="M 826.5,450.5 C 826.5,456.167 826.5,461.833 826.5,467.5C 825.5,467.5 824.5,467.5 823.5,467.5C 823.806,464.615 823.473,461.948 822.5,459.5C 820.833,459.5 819.167,459.5 817.5,459.5C 817.5,458.5 817.5,457.5 817.5,456.5C 819.167,456.5 820.833,456.5 822.5,456.5C 822.5,454.5 822.5,452.5 822.5,450.5C 823.833,450.5 825.167,450.5 826.5,450.5 Z"/></g>
<g><path style="opacity:1" fill="#6b6b6b" d="M 826.5,450.5 C 827.49,456.31 827.823,462.31 827.5,468.5C 825.833,468.5 824.167,468.5 822.5,468.5C 822.5,465.5 822.5,462.5 822.5,459.5C 823.473,461.948 823.806,464.615 823.5,467.5C 824.5,467.5 825.5,467.5 826.5,467.5C 826.5,461.833 826.5,456.167 826.5,450.5 Z"/></g>
<g><path style="opacity:1" fill="#1b1b1b" d="M 854.5,450.5 C 854.5,454.5 854.5,458.5 854.5,462.5C 856.167,462.5 857.833,462.5 859.5,462.5C 859.5,463.5 859.5,464.5 859.5,465.5C 858.167,465.5 856.833,465.5 855.5,465.5C 855.5,470.5 855.5,475.5 855.5,480.5C 853.833,480.5 852.167,480.5 850.5,480.5C 850.5,470.5 850.5,460.5 850.5,450.5C 851.833,450.5 853.167,450.5 854.5,450.5 Z"/></g>
<g><path style="opacity:1" fill="#6f6f6f" d="M 854.5,450.5 C 855.482,453.962 855.815,457.629 855.5,461.5C 857.099,461.232 858.432,461.566 859.5,462.5C 857.833,462.5 856.167,462.5 854.5,462.5C 854.5,458.5 854.5,454.5 854.5,450.5 Z"/></g>
<g><path style="opacity:1" fill="#101010" d="M 881.5,450.5 C 882.833,450.5 884.167,450.5 885.5,450.5C 885.5,460.5 885.5,470.5 885.5,480.5C 884.167,480.5 882.833,480.5 881.5,480.5C 881.5,470.5 881.5,460.5 881.5,450.5 Z"/></g>
<g><path style="opacity:1" fill="#7e7e7e" d="M 160.5,451.5 C 160.5,457.833 160.5,464.167 160.5,470.5C 164.833,470.5 169.167,470.5 173.5,470.5C 169.03,471.486 164.363,471.819 159.5,471.5C 159.176,464.646 159.509,457.979 160.5,451.5 Z"/></g>
<g><path style="opacity:1" fill="#0d0d0d" d="M 160.5,451.5 C 164.833,451.5 169.167,451.5 173.5,451.5C 173.5,452.5 173.5,453.5 173.5,454.5C 170.287,454.19 167.287,454.523 164.5,455.5C 164.5,459.5 164.5,463.5 164.5,467.5C 168.534,467.495 172.534,467.162 176.5,466.5C 176.5,467.833 176.5,469.167 176.5,470.5C 175.5,470.5 174.5,470.5 173.5,470.5C 169.167,470.5 164.833,470.5 160.5,470.5C 160.5,464.167 160.5,457.833 160.5,451.5 Z"/></g>
<g><path style="opacity:1" fill="#0f0f0f" d="M 267.5,457.5 C 268.404,456.791 268.737,455.791 268.5,454.5C 265.167,454.5 261.833,454.5 258.5,454.5C 258.5,453.5 258.5,452.5 258.5,451.5C 263.167,451.5 267.833,451.5 272.5,451.5C 272.315,461.547 267.815,468.88 259,473.5C 258.044,472.421 257.211,471.255 256.5,470C 262.144,467.526 265.811,463.359 267.5,457.5 Z"/></g>
<g><path style="opacity:1" fill="#080808" d="M 445.5,454.5 C 443.928,460.574 440.095,464.574 434,466.5C 432.72,466.387 431.887,465.72 431.5,464.5C 436.545,462.789 439.878,459.456 441.5,454.5C 438.972,453.834 436.306,453.168 433.5,452.5C 437.445,451.509 441.445,451.176 445.5,451.5C 445.5,452.5 445.5,453.5 445.5,454.5 Z"/></g>
<g><path style="opacity:1" fill="#b6b6b6" d="M 686.5,456.5 C 687.919,455.549 689.585,455.216 691.5,455.5C 691.5,454.5 691.5,453.5 691.5,452.5C 686.5,452.5 681.5,452.5 676.5,452.5C 676.5,453.5 676.5,454.5 676.5,455.5C 678.415,455.216 680.081,455.549 681.5,456.5C 679.5,456.5 677.5,456.5 675.5,456.5C 675.5,454.833 675.5,453.167 675.5,451.5C 681.167,451.5 686.833,451.5 692.5,451.5C 692.5,453.167 692.5,454.833 692.5,456.5C 690.5,456.5 688.5,456.5 686.5,456.5 Z"/></g>
<g><path style="opacity:1" fill="#171717" d="M 739.5,451.5 C 744.511,451.334 749.511,451.501 754.5,452C 759.833,454.667 759.833,457.333 754.5,460C 749.833,460.667 745.167,460.667 740.5,460C 735.568,457.705 735.235,454.871 739.5,451.5 Z"/></g>
<g><path style="opacity:1" fill="#7b7b7b" d="M 842.5,451.5 C 841.167,451.5 839.833,451.5 838.5,451.5C 838.5,452.833 838.5,454.167 838.5,455.5C 836.167,455.5 833.833,455.5 831.5,455.5C 833.265,454.539 835.265,454.205 837.5,454.5C 837.5,453.167 837.5,451.833 837.5,450.5C 839.415,450.216 841.081,450.549 842.5,451.5 Z"/></g>
<g><path style="opacity:1" fill="#101010" d="M 842.5,451.5 C 842.5,452.5 842.5,453.5 842.5,454.5C 844.265,455.461 846.265,455.795 848.5,455.5C 848.5,456.5 848.5,457.5 848.5,458.5C 842.833,458.5 837.167,458.5 831.5,458.5C 831.5,457.5 831.5,456.5 831.5,455.5C 833.833,455.5 836.167,455.5 838.5,455.5C 838.5,454.167 838.5,452.833 838.5,451.5C 839.833,451.5 841.167,451.5 842.5,451.5 Z"/></g>
<g><path style="opacity:1" fill="#ebebeb" d="M 196.5,452.5 C 199.85,452.335 203.183,452.502 206.5,453C 207.973,453.71 208.64,454.876 208.5,456.5C 204.869,457.412 201.203,457.579 197.5,457C 195.452,455.774 195.119,454.274 196.5,452.5 Z"/></g>
<g><path style="opacity:1" fill="#5d5d5d" d="M 297.5,452.5 C 300.247,452.187 302.914,452.52 305.5,453.5C 305.376,454.107 305.043,454.44 304.5,454.5C 302.167,453.833 299.833,453.167 297.5,452.5 Z"/></g>
<g><path style="opacity:1" fill="#696969" d="M 319.5,452.5 C 317.167,453.167 314.833,453.833 312.5,454.5C 311.957,454.44 311.624,454.107 311.5,453.5C 314.086,452.52 316.753,452.187 319.5,452.5 Z"/></g>
<g><path style="opacity:1" fill="#e1e1e1" d="M 371.5,451.5 C 374.518,451.335 377.518,451.502 380.5,452C 382.481,452.605 382.815,453.605 381.5,455C 377.309,455.922 373.309,455.588 369.5,454C 370.381,453.292 371.047,452.458 371.5,451.5 Z"/></g>
<g><path style="opacity:1" fill="#0d0d0d" d="M 686.5,456.5 C 687.288,459.97 689.288,462.637 692.5,464.5C 692.081,465.672 691.415,466.672 690.5,467.5C 688.063,466.197 685.896,464.53 684,462.5C 682.5,464 681,465.5 679.5,467C 676.866,467.925 675.699,467.091 676,464.5C 679.572,463.021 681.406,460.354 681.5,456.5C 680.081,455.549 678.415,455.216 676.5,455.5C 676.5,454.5 676.5,453.5 676.5,452.5C 681.5,452.5 686.5,452.5 691.5,452.5C 691.5,453.5 691.5,454.5 691.5,455.5C 689.585,455.216 687.919,455.549 686.5,456.5 Z"/></g>
<g><path style="opacity:1" fill="#050505" d="M 710.5,455.5 C 709.532,457.607 709.198,459.941 709.5,462.5C 713.042,462.813 716.375,462.479 719.5,461.5C 722.125,462.458 722.125,463.624 719.5,465C 714.845,465.499 710.179,465.666 705.5,465.5C 705.5,461.167 705.5,456.833 705.5,452.5C 709.833,452.5 714.167,452.5 718.5,452.5C 718.5,453.5 718.5,454.5 718.5,455.5C 715.833,455.5 713.167,455.5 710.5,455.5 Z"/></g>
<g><path style="opacity:1" fill="#0f0f0f" d="M 773.5,452.5 C 778.833,452.5 784.167,452.5 789.5,452.5C 789.5,453.5 789.5,454.5 789.5,455.5C 787.5,455.5 785.5,455.5 783.5,455.5C 784.049,459.555 786.049,462.722 789.5,465C 789.387,466.28 788.72,467.113 787.5,467.5C 785.091,466.299 783.091,464.633 781.5,462.5C 779.684,463.815 778.017,465.315 776.5,467C 773.866,467.925 772.699,467.091 773,464.5C 776.872,462.758 778.705,459.758 778.5,455.5C 776.833,455.5 775.167,455.5 773.5,455.5C 773.5,454.5 773.5,453.5 773.5,452.5 Z"/></g>
<g><path style="opacity:1" fill="#7d7d7d" d="M 813.5,452.5 C 812.167,452.5 810.833,452.5 809.5,452.5C 809.768,454.099 809.434,455.432 808.5,456.5C 808.5,454.833 808.5,453.167 808.5,451.5C 810.415,451.216 812.081,451.549 813.5,452.5 Z"/></g>
<g><path style="opacity:1" fill="#0e0e0e" d="M 813.5,452.5 C 812.69,457.547 814.523,461.214 819,463.5C 819.301,466.091 818.134,466.925 815.5,466C 814,464.5 812.5,463 811,461.5C 809.54,464.986 807.04,466.819 803.5,467C 802.978,466.439 802.645,465.772 802.5,465C 805.865,463.093 807.865,460.26 808.5,456.5C 809.434,455.432 809.768,454.099 809.5,452.5C 810.833,452.5 812.167,452.5 813.5,452.5 Z"/></g>
<g><path style="opacity:1" fill="#0b0b0b" d="M 898.5,452.5 C 902.182,452.335 905.848,452.501 909.5,453C 915.313,455.128 916.813,458.961 914,464.5C 912.084,466.209 909.918,467.543 907.5,468.5C 906.548,470.045 906.215,471.712 906.5,473.5C 910.167,473.5 913.833,473.5 917.5,473.5C 917.5,474.5 917.5,475.5 917.5,476.5C 908.5,476.5 899.5,476.5 890.5,476.5C 890.5,475.5 890.5,474.5 890.5,473.5C 894.5,473.5 898.5,473.5 902.5,473.5C 902.5,471.833 902.5,470.167 902.5,468.5C 895.526,467.368 892.693,463.368 894,456.5C 895.397,454.93 896.897,453.596 898.5,452.5 Z"/></g>
<g><path style="opacity:1" fill="#e5e5e5" d="M 401.5,452.5 C 404.187,452.336 406.854,452.503 409.5,453C 413.5,454.667 413.5,456.333 409.5,458C 406.833,458.667 404.167,458.667 401.5,458C 398.982,456.19 398.982,454.357 401.5,452.5 Z"/></g>
<g><path style="opacity:1" fill="#e5e5e5" d="M 469.5,452.5 C 472.187,452.336 474.854,452.503 477.5,453C 481.5,454.667 481.5,456.333 477.5,458C 474.833,458.667 472.167,458.667 469.5,458C 466.982,456.19 466.982,454.357 469.5,452.5 Z"/></g>
<g><path style="opacity:1" fill="#121212" d="M 868.5,452.5 C 869.833,452.5 871.167,452.5 872.5,452.5C 872.251,457.836 873.418,462.836 876,467.5C 878.741,468.222 879.741,469.888 879,472.5C 878.282,473.451 877.449,473.617 876.5,473C 874.291,471.127 872.458,468.96 871,466.5C 869.022,469.645 866.522,472.312 863.5,474.5C 862.585,473.672 861.919,472.672 861.5,471.5C 867.477,466.539 869.811,460.206 868.5,452.5 Z"/></g>
<g><path style="opacity:1" fill="#727272" d="M 233.5,450.5 C 234.434,451.568 234.768,452.901 234.5,454.5C 238.5,454.5 242.5,454.5 246.5,454.5C 242.366,455.485 238.032,455.818 233.5,455.5C 233.5,453.833 233.5,452.167 233.5,450.5 Z"/></g>
<g><path style="opacity:1" fill="#7e7e7e" d="M 258.5,454.5 C 261.833,454.5 265.167,454.5 268.5,454.5C 268.737,455.791 268.404,456.791 267.5,457.5C 264.797,455.89 261.797,454.89 258.5,454.5 Z"/></g>
<g><path style="opacity:1" fill="#f5f5f5" d="M 741.5,454.5 C 745.5,454.5 749.5,454.5 753.5,454.5C 753.5,455.5 753.5,456.5 753.5,457.5C 749.5,457.5 745.5,457.5 741.5,457.5C 741.5,456.5 741.5,455.5 741.5,454.5 Z"/></g>
<g><path style="opacity:1" fill="#ebebeb" d="M 330.5,454.5 C 331.496,454.414 332.329,454.748 333,455.5C 333.167,457.333 333.333,459.167 333.5,461C 333.695,463.793 333.029,466.293 331.5,468.5C 329.016,466.909 328.016,464.575 328.5,461.5C 328.319,458.837 328.985,456.503 330.5,454.5 Z"/></g>
<g><path style="opacity:1" fill="#888888" d="M 842.5,454.5 C 844.833,454.5 847.167,454.5 849.5,454.5C 849.768,456.099 849.434,457.432 848.5,458.5C 848.5,457.5 848.5,456.5 848.5,455.5C 846.265,455.795 844.265,455.461 842.5,454.5 Z"/></g>
<g><path style="opacity:1" fill="#ededed" d="M 900.5,455.5 C 904.603,454.769 908.103,455.769 911,458.5C 911.491,463.345 909.158,465.678 904,465.5C 896.992,463.883 895.826,460.549 900.5,455.5 Z"/></g>
<g><path style="opacity:0.965" fill="#292928" d="M 1150.5,457.5 C 1150.5,457.167 1150.5,456.833 1150.5,456.5C 1155.69,456.179 1160.69,456.513 1165.5,457.5C 1165.83,588.334 1165.5,719.001 1164.5,849.5C 1164.5,718.833 1164.5,588.167 1164.5,457.5C 1159.83,457.5 1155.17,457.5 1150.5,457.5 Z"/></g>
<g><path style="opacity:1" fill="#f5f5f5" d="M 233.5,458.5 C 237.833,458.5 242.167,458.5 246.5,458.5C 246.5,459.833 246.5,461.167 246.5,462.5C 242.167,462.5 237.833,462.5 233.5,462.5C 233.5,461.167 233.5,459.833 233.5,458.5 Z"/></g>
<g><path style="opacity:1" fill="#131313" d="M 836.5,460.5 C 844.825,458.993 848.325,462.327 847,470.5C 842.959,475.313 838.625,475.646 834,471.5C 831.6,466.99 832.433,463.323 836.5,460.5 Z"/></g>
<g><path style="opacity:1" fill="#848484" d="M 321.5,462.5 C 312.833,462.5 304.167,462.5 295.5,462.5C 295.5,463.5 295.5,464.5 295.5,465.5C 294.566,464.432 294.232,463.099 294.5,461.5C 303.682,461.173 312.682,461.507 321.5,462.5 Z"/></g>
<g><path style="opacity:1" fill="#a4a4a4" d="M 710.5,455.5 C 710.5,457.5 710.5,459.5 710.5,461.5C 713.5,461.5 716.5,461.5 719.5,461.5C 716.375,462.479 713.042,462.813 709.5,462.5C 709.198,459.941 709.532,457.607 710.5,455.5 Z"/></g>
<g><path style="opacity:1" fill="#000000" d="M 188.5,462.5 C 197.5,462.5 206.5,462.5 215.5,462.5C 215.5,463.5 215.5,464.5 215.5,465.5C 206.5,465.5 197.5,465.5 188.5,465.5C 188.5,464.5 188.5,463.5 188.5,462.5 Z"/></g>
<g><path style="opacity:1" fill="#0e0e0e" d="M 321.5,462.5 C 321.5,463.5 321.5,464.5 321.5,465.5C 317.774,465.177 314.107,465.511 310.5,466.5C 312.937,467.926 315.437,469.259 318,470.5C 319.45,474.724 317.95,477.224 313.5,478C 309.044,478.867 304.711,478.534 300.5,477C 297.833,474.333 297.833,471.667 300.5,469C 302.5,468.167 304.5,467.333 306.5,466.5C 302.893,465.511 299.226,465.177 295.5,465.5C 295.5,464.5 295.5,463.5 295.5,462.5C 304.167,462.5 312.833,462.5 321.5,462.5 Z"/></g>
<g><path style="opacity:1" fill="#000000" d="M 760.5,462.5 C 760.5,463.5 760.5,464.5 760.5,465.5C 751.833,465.5 743.167,465.5 734.5,465.5C 734.5,464.5 734.5,463.5 734.5,462.5C 743.167,462.5 751.833,462.5 760.5,462.5 Z"/></g>
<g><path style="opacity:1" fill="#9b9b9b" d="M 362.5,463.5 C 371.5,463.5 380.5,463.5 389.5,463.5C 387.833,464.167 386.167,464.833 384.5,465.5C 383.167,465.5 381.833,465.5 380.5,465.5C 374.5,464.833 368.5,464.167 362.5,463.5 Z"/></g>
<g><path style="opacity:1" fill="#3d3d3d" d="M 460.5,464.5 C 469.318,463.507 478.318,463.173 487.5,463.5C 487.5,464.833 487.5,466.167 487.5,467.5C 478.318,467.827 469.318,467.493 460.5,466.5C 495.167,465.833 495.167,465.167 460.5,464.5 Z"/></g>
<g><path style="opacity:1" fill="#eeeeee" d="M 838.5,463.5 C 843.328,463.385 844.661,465.552 842.5,470C 836.738,470.418 835.404,468.251 838.5,463.5 Z"/></g>
<g><path style="opacity:1" fill="#1f1f1f" d="M 392.5,463.5 C 401.5,463.5 410.5,463.5 419.5,463.5C 419.5,464.833 419.5,466.167 419.5,467.5C 410.5,467.5 401.5,467.5 392.5,467.5C 392.5,466.167 392.5,464.833 392.5,463.5 Z"/></g>
<g><path style="opacity:1" fill="#000000" d="M 460.5,464.5 C 495.167,465.167 495.167,465.833 460.5,466.5C 460.5,465.833 460.5,465.167 460.5,464.5 Z"/></g>
<g><path style="opacity:1" fill="#000000" d="M 380.5,465.5 C 381.833,465.5 383.167,465.5 384.5,465.5C 385.833,466.833 387.167,468.167 388.5,469.5C 384.445,469.824 380.445,469.491 376.5,468.5C 377.949,467.828 379.282,467.161 380.5,466.5C 380.5,466.167 380.5,465.833 380.5,465.5 Z"/></g>
<g><path style="opacity:1" fill="#a3a3a3" d="M 760.5,462.5 C 761.434,463.568 761.768,464.901 761.5,466.5C 752.318,466.827 743.318,466.493 734.5,465.5C 743.167,465.5 751.833,465.5 760.5,465.5C 760.5,464.5 760.5,463.5 760.5,462.5 Z"/></g>
<g><path style="opacity:1" fill="#111111" d="M 374.5,473.5 C 372.585,473.216 370.919,473.549 369.5,474.5C 371.607,475.468 373.941,475.802 376.5,475.5C 376.423,476.75 375.756,477.583 374.5,478C 371.518,478.498 368.518,478.665 365.5,478.5C 365.5,475.833 365.5,473.167 365.5,470.5C 367.167,470.5 368.833,470.5 370.5,470.5C 371.043,470.44 371.376,470.107 371.5,469.5C 369.5,468.833 367.5,468.167 365.5,467.5C 368.428,466.516 371.428,466.183 374.5,466.5C 374.5,468.833 374.5,471.167 374.5,473.5 Z"/></g>
<g><path style="opacity:1" fill="#767676" d="M 380.5,466.5 C 379.282,467.161 377.949,467.828 376.5,468.5C 380.445,469.491 384.445,469.824 388.5,469.5C 387.167,470.167 385.833,470.833 384.5,471.5C 382.833,471.5 381.167,471.5 379.5,471.5C 378.432,470.566 377.099,470.232 375.5,470.5C 375.737,471.791 375.404,472.791 374.5,473.5C 374.5,471.167 374.5,468.833 374.5,466.5C 371.428,466.183 368.428,466.516 365.5,467.5C 367.5,468.167 369.5,468.833 371.5,469.5C 371.376,470.107 371.043,470.44 370.5,470.5C 368.735,469.539 366.735,469.205 364.5,469.5C 364.5,468.167 364.5,466.833 364.5,465.5C 369.862,465.472 375.195,465.806 380.5,466.5 Z"/></g>
<g><path style="opacity:1" fill="#161616" d="M 443.5,466.5 C 444.833,466.5 446.167,466.5 447.5,466.5C 448.584,471.247 451.584,473.914 456.5,474.5C 456.778,476.346 456.111,477.68 454.5,478.5C 451.339,477.087 448.339,475.42 445.5,473.5C 442.952,475.942 439.952,477.608 436.5,478.5C 435.585,477.672 434.919,476.672 434.5,475.5C 436.824,474.338 439.158,473.171 441.5,472C 442.861,470.416 443.528,468.582 443.5,466.5 Z"/></g>
<g><path style="opacity:1" fill="#202020" d="M 191.5,467.5 C 198.5,467.5 205.5,467.5 212.5,467.5C 212.5,471.167 212.5,474.833 212.5,478.5C 205.5,478.5 198.5,478.5 191.5,478.5C 191.5,474.833 191.5,471.167 191.5,467.5 Z"/></g>
<g><path style="opacity:1" fill="#0c0c0c" d="M 723.5,470.5 C 724.467,469.194 725.801,468.527 727.5,468.5C 727.5,472.167 727.5,475.833 727.5,479.5C 721.167,479.5 714.833,479.5 708.5,479.5C 708.5,475.5 708.5,471.5 708.5,467.5C 709.833,467.5 711.167,467.5 712.5,467.5C 712.5,468.5 712.5,469.5 712.5,470.5C 716.167,470.5 719.833,470.5 723.5,470.5 Z"/></g>
<g><path style="opacity:1" fill="#1a1a1a" d="M 737.5,467.5 C 744.167,467.5 750.833,467.5 757.5,467.5C 757.5,470.167 757.5,472.833 757.5,475.5C 752.156,475.334 746.823,475.501 741.5,476C 747.157,476.499 752.824,476.666 758.5,476.5C 758.5,477.833 758.5,479.167 758.5,480.5C 751.5,480.5 744.5,480.5 737.5,480.5C 737.5,477.833 737.5,475.167 737.5,472.5C 758.833,471.833 758.833,471.167 737.5,470.5C 737.5,469.5 737.5,468.5 737.5,467.5 Z"/></g>
<g><path style="opacity:1" fill="#050505" d="M 395.5,469.5 C 396.833,469.5 398.167,469.5 399.5,469.5C 399.5,471.167 399.5,472.833 399.5,474.5C 405.167,474.5 410.833,474.5 416.5,474.5C 416.5,475.5 416.5,476.5 416.5,477.5C 409.5,477.5 402.5,477.5 395.5,477.5C 395.5,474.833 395.5,472.167 395.5,469.5 Z"/></g>
<g><path style="opacity:1" fill="#040404" d="M 463.5,469.5 C 464.833,469.5 466.167,469.5 467.5,469.5C 467.5,471.167 467.5,472.833 467.5,474.5C 473.167,474.5 478.833,474.5 484.5,474.5C 484.5,475.5 484.5,476.5 484.5,477.5C 477.5,477.5 470.5,477.5 463.5,477.5C 463.5,474.833 463.5,472.167 463.5,469.5 Z"/></g>
<g><path style="opacity:1" fill="#121212" d="M 683.5,469.5 C 688.628,469.112 693.628,469.612 698.5,471C 700.683,475.593 699.35,478.593 694.5,480C 690.375,480.854 686.375,480.52 682.5,479C 678.379,475.329 678.712,472.163 683.5,469.5 Z"/></g>
<g><path style="opacity:1" fill="#5d5d5d" d="M 795.5,480.5 C 795.5,477.167 795.5,473.833 795.5,470.5C 789.132,470.17 782.798,470.504 776.5,471.5C 781.651,472.167 786.651,472.834 791.5,473.5C 786.167,473.5 780.833,473.5 775.5,473.5C 775.5,472.167 775.5,470.833 775.5,469.5C 782.5,469.5 789.5,469.5 796.5,469.5C 796.815,473.371 796.482,477.038 795.5,480.5 Z"/></g>
<g><path style="opacity:1" fill="#1b1b1b" d="M 812.5,468.5 C 818.001,467.64 822.834,468.973 827,472.5C 827.604,476.588 825.77,479.088 821.5,480C 815.924,481.472 811.091,480.305 807,476.5C 806.333,475.167 806.333,473.833 807,472.5C 808.812,471.023 810.645,469.69 812.5,468.5 Z"/></g>
<g><path style="opacity:1" fill="#434343" d="M 195.5,471.5 C 199.634,470.515 203.968,470.182 208.5,470.5C 208.5,472.167 208.5,473.833 208.5,475.5C 203.968,475.818 199.634,475.485 195.5,474.5C 199.5,474.5 203.5,474.5 207.5,474.5C 207.5,473.5 207.5,472.5 207.5,471.5C 203.5,471.5 199.5,471.5 195.5,471.5 Z"/></g>
<g><path style="opacity:1" fill="#fbfbfb" d="M 379.5,471.5 C 378.5,471.833 377.833,472.5 377.5,473.5C 374.946,474.388 372.279,474.721 369.5,474.5C 370.919,473.549 372.585,473.216 374.5,473.5C 375.404,472.791 375.737,471.791 375.5,470.5C 377.099,470.232 378.432,470.566 379.5,471.5 Z"/></g>
<g><path style="opacity:1" fill="#151515" d="M 495.5,469.5 C 498.966,470.109 499.966,471.942 498.5,475C 493.289,475.546 492.289,473.713 495.5,469.5 Z"/></g>
<g><path style="opacity:1" fill="#c9c9c9" d="M 737.5,467.5 C 737.5,468.5 737.5,469.5 737.5,470.5C 758.833,471.167 758.833,471.833 737.5,472.5C 737.5,475.167 737.5,477.833 737.5,480.5C 736.167,476.167 736.167,471.833 737.5,467.5 Z"/></g>
<g><path style="opacity:1" fill="#080808" d="M 795.5,480.5 C 794.167,480.5 792.833,480.5 791.5,480.5C 791.5,478.167 791.5,475.833 791.5,473.5C 786.651,472.834 781.651,472.167 776.5,471.5C 782.798,470.504 789.132,470.17 795.5,470.5C 795.5,473.833 795.5,477.167 795.5,480.5 Z"/></g>
<g><path style="opacity:1" fill="#f8f8f8" d="M 195.5,471.5 C 199.5,471.5 203.5,471.5 207.5,471.5C 207.5,472.5 207.5,473.5 207.5,474.5C 203.5,474.5 199.5,474.5 195.5,474.5C 195.5,473.5 195.5,472.5 195.5,471.5 Z"/></g>
<g><path style="opacity:1" fill="#dadada" d="M 303.5,470.5 C 306.518,470.335 309.518,470.502 312.5,471C 315.096,472.797 314.763,474.131 311.5,475C 309.167,475.667 306.833,475.667 304.5,475C 302.218,473.916 301.884,472.416 303.5,470.5 Z"/></g>
<g><path style="opacity:1" fill="#151515" d="M 379.5,471.5 C 381.167,471.5 382.833,471.5 384.5,471.5C 388.068,472.969 388.402,475.136 385.5,478C 382.073,479.166 379.407,478.332 377.5,475.5C 377.5,474.833 377.5,474.167 377.5,473.5C 377.833,472.5 378.5,471.833 379.5,471.5 Z"/></g>
<g><path style="opacity:1" fill="#e6e6e6" d="M 684.5,472.5 C 687.85,472.335 691.183,472.502 694.5,473C 695.925,474.714 695.592,476.047 693.5,477C 689.57,478.138 686.236,477.305 683.5,474.5C 683.863,473.817 684.196,473.15 684.5,472.5 Z"/></g>
<g><path style="opacity:1" fill="#e8e8e8" d="M 811.5,472.5 C 814.85,472.335 818.183,472.502 821.5,473C 822.925,474.714 822.592,476.047 820.5,477C 818.167,477.667 815.833,477.667 813.5,477C 811.893,475.951 811.227,474.451 811.5,472.5 Z"/></g>
<g><path style="opacity:1" fill="#1c1c1c" d="M 922.5,471.5 C 926.485,471.629 927.818,473.463 926.5,477C 921.728,477.81 920.395,475.977 922.5,471.5 Z"/></g>
<g><path style="opacity:1" fill="#8c8c8c" d="M 723.5,474.5 C 719.671,473.931 716.337,474.598 713.5,476.5C 712.596,475.791 712.263,474.791 712.5,473.5C 716.371,473.185 720.038,473.518 723.5,474.5 Z"/></g>
<g><path style="opacity:1" fill="#919191" d="M 227.5,471.5 C 227.5,472.5 227.5,473.5 227.5,474.5C 236.167,474.5 244.833,474.5 253.5,474.5C 244.682,475.493 235.682,475.827 226.5,475.5C 226.232,473.901 226.566,472.568 227.5,471.5 Z"/></g>
<g><path style="opacity:1" fill="#767676" d="M 377.5,473.5 C 377.5,474.167 377.5,474.833 377.5,475.5C 377.167,475.5 376.833,475.5 376.5,475.5C 373.941,475.802 371.607,475.468 369.5,474.5C 372.279,474.721 374.946,474.388 377.5,473.5 Z"/></g>
<g><path style="opacity:1" fill="#dedede" d="M 380.5,473.5 C 381.675,473.281 382.675,473.614 383.5,474.5C 381.948,475.798 380.948,475.465 380.5,473.5 Z"/></g>
<g><path style="opacity:1" fill="#fefffe" d="M 723.5,474.5 C 720.663,476.402 717.329,477.069 713.5,476.5C 716.337,474.598 719.671,473.931 723.5,474.5 Z"/></g>
<g><path style="opacity:1" fill="#777777" d="M 708.5,479.5 C 714.833,479.5 721.167,479.5 727.5,479.5C 727.5,475.833 727.5,472.167 727.5,468.5C 725.801,468.527 724.467,469.194 723.5,470.5C 723.5,469.5 723.5,468.5 723.5,467.5C 725.167,467.5 726.833,467.5 728.5,467.5C 728.5,471.833 728.5,476.167 728.5,480.5C 721.646,480.824 714.979,480.491 708.5,479.5 Z"/></g>
<g><path style="opacity:1" fill="#dcf1fc" d="M 689.5,524.5 C 816.167,524.333 942.834,524.5 1069.5,525C 1076.91,527.408 1082.08,532.242 1085,539.5C 1085.67,575.833 1085.67,612.167 1085,648.5C 1082.59,655.909 1077.76,661.076 1070.5,664C 943.167,664.667 815.833,664.667 688.5,664C 681.667,661.167 676.833,656.333 674,649.5C 673.333,613.167 673.333,576.833 674,540.5C 676.685,532.65 681.852,527.316 689.5,524.5 Z"/></g>
<g><path style="opacity:1" fill="#202020" d="M 179.5,519.5 C 195.647,518.151 203.48,525.484 203,541.5C 196.953,555.295 187.119,558.795 173.5,552C 162.754,538.704 164.754,527.871 179.5,519.5 Z"/></g>
<g><path style="opacity:1" fill="#f9f9f9" d="M 179.5,521.5 C 195.502,520.334 202.335,527.667 200,543.5C 194.943,552.606 187.443,555.44 177.5,552C 168.221,545.497 166.387,537.33 172,527.5C 174.114,524.879 176.614,522.879 179.5,521.5 Z"/></g>
<g><path style="opacity:1" fill="#121212" d="M 184.5,526.5 C 185.5,526.5 186.5,526.5 187.5,526.5C 187.5,533.5 187.5,540.5 187.5,547.5C 186.167,547.5 184.833,547.5 183.5,547.5C 183.5,542.167 183.5,536.833 183.5,531.5C 182.167,531.5 180.833,531.5 179.5,531.5C 179.281,530.325 179.614,529.325 180.5,528.5C 182.026,528.006 183.359,527.339 184.5,526.5 Z"/></g>
<g><path style="opacity:1" fill="#1d1d1d" d="M 180.5,572.5 C 195.024,572.195 202.524,579.195 203,593.5C 200.649,603.515 194.315,608.849 184,609.5C 168.029,605.245 163.363,595.578 170,580.5C 172.94,576.963 176.44,574.297 180.5,572.5 Z"/></g>
<g><path style="opacity:1" fill="#f6f6f6" d="M 181.5,574.5 C 198.398,575.967 203.898,584.634 198,600.5C 190.27,608.845 181.936,609.511 173,602.5C 165.451,589.983 168.284,580.649 181.5,574.5 Z"/></g>
<g><path style="opacity:1" fill="#121212" d="M 192.5,600.5 C 187.381,601.103 182.715,600.436 178.5,598.5C 181.129,595.369 183.962,592.369 187,589.5C 187.638,583.165 185.138,581.832 179.5,585.5C 178.5,585.167 177.833,584.5 177.5,583.5C 181.021,580.391 185.021,579.724 189.5,581.5C 191.969,584.674 192.136,588.007 190,591.5C 188.167,593.333 186.333,595.167 184.5,597C 187.146,597.497 189.813,597.664 192.5,597.5C 192.5,598.5 192.5,599.5 192.5,600.5 Z"/></g>
<g><path style="opacity:1" fill="#555555" d="M 178.5,598.5 C 182.715,600.436 187.381,601.103 192.5,600.5C 187.695,601.487 182.695,601.821 177.5,601.5C 177.263,600.209 177.596,599.209 178.5,598.5 Z"/></g>
<g><path style="opacity:1" fill="#212121" d="M 179.5,626.5 C 198.644,626.158 205.81,635.158 201,653.5C 194.887,662.374 186.72,664.874 176.5,661C 167.786,655.319 164.953,647.485 168,637.5C 170.412,632.252 174.246,628.586 179.5,626.5 Z"/></g>
<g><path style="opacity:1" fill="#f7f7f7" d="M 180.5,628.5 C 196.024,627.897 202.524,635.231 200,650.5C 194.283,660.626 186.116,663.126 175.5,658C 165.136,646.016 166.803,636.183 180.5,628.5 Z"/></g>
<g><path style="opacity:1" fill="#161616" d="M 181.5,633.5 C 185.192,632.971 188.358,633.971 191,636.5C 192.041,639.636 191.207,642.136 188.5,644C 193.395,646.823 193.729,650.157 189.5,654C 184.916,656.415 180.916,655.748 177.5,652C 177.63,650.941 178.13,650.108 179,649.5C 182.566,652.273 185.733,652.106 188.5,649C 187.046,646.272 184.712,645.106 181.5,645.5C 181.5,644.5 181.5,643.5 181.5,642.5C 185.56,643.152 187.56,641.485 187.5,637.5C 184.455,637.508 181.455,637.841 178.5,638.5C 178.31,636.041 179.31,634.374 181.5,633.5 Z"/></g>
<g><path style="opacity:1" fill="#212121" d="M 181.5,679.5 C 200.36,681.238 206.527,690.905 200,708.5C 191.856,717.581 182.689,718.747 172.5,712C 162.469,697.561 165.469,686.728 181.5,679.5 Z"/></g>
<g><path style="opacity:1" fill="#fafafa" d="M 179.5,682.5 C 196.84,681.674 203.34,689.674 199,706.5C 192.125,715.129 183.958,716.629 174.5,711C 165.351,699.534 167.018,690.034 179.5,682.5 Z"/></g>
<g><path style="opacity:1" fill="#131313" d="M 185.5,703.5 C 182.713,702.523 179.713,702.19 176.5,702.5C 176.5,701.5 176.5,700.5 176.5,699.5C 179.142,695.852 181.809,692.185 184.5,688.5C 186.045,687.548 187.712,687.215 189.5,687.5C 189.5,691.5 189.5,695.5 189.5,699.5C 190.5,699.5 191.5,699.5 192.5,699.5C 192.5,700.833 192.5,702.167 192.5,703.5C 191.5,703.5 190.5,703.5 189.5,703.5C 189.5,705.167 189.5,706.833 189.5,708.5C 188.167,708.5 186.833,708.5 185.5,708.5C 185.5,706.833 185.5,705.167 185.5,703.5 Z"/></g>
<g><path style="opacity:1" fill="#efefef" d="M 184.5,693.5 C 185.461,695.265 185.795,697.265 185.5,699.5C 183.801,699.66 182.134,699.494 180.5,699C 182.439,697.568 183.772,695.735 184.5,693.5 Z"/></g>
<g><path style="opacity:1" fill="#626262" d="M 176.5,699.5 C 176.5,700.5 176.5,701.5 176.5,702.5C 179.713,702.19 182.713,702.523 185.5,703.5C 182.167,703.5 178.833,703.5 175.5,703.5C 175.232,701.901 175.566,700.568 176.5,699.5 Z"/></g>
<g><path style="opacity:1" fill="#727272" d="M 598.5,751.5 C 599.496,764.99 599.829,778.656 599.5,792.5C 601.167,792.5 602.833,792.5 604.5,792.5C 602.735,793.461 600.735,793.795 598.5,793.5C 598.5,779.5 598.5,765.5 598.5,751.5 Z"/></g>
</svg>
